Coordinates
version=1
nRows=4
nColumns=107
inDegrees=yes

Units are S.I. units (second, meters, Newtons, ...)
If the header above contains a line with 'inDegrees', this indicates whether rotational values are in degrees (yes) or radians (no).

endheader
time	sternoclavicular_r2	sternoclavicular_r3	unrotscap_r3	unrotscap_r2	acromioclavicular_r2	acromioclavicular_r3	acromioclavicular_r1	unrothum_r1	unrothum_r3	unrothum_r2	elv_angle	shoulder_elv	shoulder1_r2	shoulder_rot	elbow_flexion	pro_sup	deviation	flexion	proximal_distal_r1	proximal_distal_r3	cmc_flexion	cmc_abduction	mp_flexion	ip_flexion	mcp2_flexion	mcp2_abduction	pm2_flexion	md2_flexion	mcp3_flexion	mcp3_abduction	pm3_flexion	md3_flexion	mcp4_flexion	mcp4_abduction	pm4_flexion	md4_flexion	mcp5_flexion	mcp5_abduction	pm5_flexion	md5_flexion	bicpt_tx	bicpt_ty	bicpt_tz	bicpt2_tx	bicpt2_ty	bicpt2_tz	ptpt_tx	ptpt_ty	ptpt_tz	FCUpt_tx	FCUpt_ty	FCUpt_tz	EDCpt_tx	EDCpt_ty	EDCpt_tz	APLpt_tx	APLpt_ty	APLpt_tz	FPLpt_tx	FPLpt_ty	FPLpt_tz	FPLpt2_tx	FPLpt2_ty	FPLpt2_tz	PEC1pt2_tx	PEC1pt2_ty	PEC1pt2_tz	PEC1pt3_tx	PEC1pt3_ty	PEC1pt3_tz	PEC2pt2_tx	PEC2pt2_ty	PEC2pt2_tz	PEC2pt3_tx	PEC2pt3_ty	PEC2pt3_tz	PEC3pt2_tx	PEC3pt2_ty	PEC3pt2_tz	PEC3pt3_tx	PEC3pt3_ty	PEC3pt3_tz	DELT2pt2a_tx	DELT2pt2a_ty	DELT2pt2a_tz	DELT2pt2_tx	DELT2pt2_ty	DELT2pt2_tz	LAT1pt2_tx	LAT1pt2_ty	LAT1pt2_tz	LAT1pt3_tx	LAT1pt3_ty	LAT1pt3_tz	LAT2pt2_tx	LAT2pt2_ty	LAT2pt2_tz	LAT2pt3_tx	LAT2pt3_ty	LAT2pt3_tz	LAT3pt2_tx	LAT3pt2_ty	LAT3pt2_tz	LAT3pt3_tx	LAT3pt3_ty	LAT3pt3_tz
      1.26666667	     -0.32187293	      0.13633018	     -0.13633018	      0.32187293	     -0.06517272	      0.52670300	      0.23674937	     -0.23674937	     -0.52670300	      0.06517272	     97.19773315	     76.20627638	     -1.69642047	    -22.38233640	     31.69276641	     38.42224529	      0.17779497	     -0.96379023	      0.21541893	     -0.48189512	     18.01907945	      0.42960856	    -42.70911178	    -70.22828898	     96.66896912	     13.17711660	     78.90270513	     22.01603651	     94.49102240	      3.55081821	     82.89218579	     42.21786930	     92.06387133	    -13.10800297	     87.06261074	     26.88957945	     97.88791600	    -14.01908730	     75.50590436	      5.73646693	      0.00094830	     -0.03123248	     -0.00488510	      0.01656862	     -0.01880950	     -0.00763672	      0.00471103	     -0.06673573	     -0.00314512	      0.00762177	     -0.18352753	     -0.00037428	     -0.00461066	      0.00131645	      0.00015707	      0.00020820	      0.00008328	      0.00041640	      0.00026650	      0.00079949	      0.00044971	      0.00001670	     -0.00027011	     -0.00032414	      0.00249787	      0.00876373	      0.00609651	     -0.00817101	      0.01972897	     -0.01871289	      0.00249787	      0.00876373	      0.00609651	      0.00055038	      0.01828952	     -0.00961047	      0.00394943	      0.00487340	      0.01597128	      0.00000000	      0.00776665	      0.00000000	     -0.00715493	     -0.03306508	     -0.00640389	      0.01511303	     -0.00050621	     -0.00416920	     -0.00088907	      0.01490257	     -0.00609651	      0.00245554	      0.02150712	     -0.01778148	     -0.00596950	      0.01291274	     -0.00546145	     -0.01244704	      0.02726494	     -0.03052487	     -0.02336994	      0.01443687	     -0.00732428	     -0.01549529	      0.03149862	     -0.03814551
      1.30000000	     -0.32414949	      0.13729443	     -0.13729443	      0.32414949	     -0.06563368	      0.53042830	      0.23842387	     -0.23842387	     -0.53042830	      0.06563368	     96.74942131	     76.74527311	     -1.68859595	    -19.98297868	     31.57384041	     36.15047018	      0.18815395	     -0.96455690	      0.22637473	     -0.48227845	     17.95986475	      0.41891864	    -42.70606826	    -70.29863925	     96.57491424	     13.17590482	     79.14139939	     22.04861926	     94.55939124	      3.62299715	     83.06991369	     43.17827872	     92.15121092	    -13.13415328	     86.82361804	     26.26036886	     98.00152932	    -14.02006085	     75.47349692	      5.73916221	      0.00094436	     -0.03121884	     -0.00488290	      0.01655026	     -0.01877719	     -0.00787058	      0.00487889	     -0.06662719	     -0.00296211	      0.00739496	     -0.18357304	     -0.00035351	     -0.00433805	      0.00122594	      0.00017004	      0.00020774	      0.00008309	      0.00041547	      0.00026590	      0.00079771	      0.00044871	      0.00001684	     -0.00026980	     -0.00032376	      0.00251554	      0.00882571	      0.00613963	     -0.00822881	      0.01986852	     -0.01884524	      0.00251554	      0.00882571	      0.00613963	      0.00055427	      0.01841888	     -0.00967844	      0.00396977	      0.00490787	      0.01602076	      0.00000000	      0.00787769	      0.00000000	     -0.00720553	     -0.03329895	     -0.00649606	      0.01376644	     -0.00043141	     -0.00329227	     -0.00089536	      0.01500798	     -0.00613963	      0.00247291	      0.02165924	     -0.01790725	     -0.00601172	      0.01300407	     -0.00550008	     -0.01253507	      0.02745778	     -0.03074077	     -0.02353524	      0.01453898	     -0.00737608	     -0.01560489	      0.03172141	     -0.03841531
      1.33333333	     -0.32112261	      0.13601238	     -0.13601238	      0.32112261	     -0.06502080	      0.52547520	      0.23619749	     -0.23619749	     -0.52547520	      0.06502080	     97.37561049	     76.02863190	     -1.69952501	    -23.21584653	     31.66237812	     38.82835282	      0.16629381	     -0.97631636	      0.20304947	     -0.48815818	     17.76739471	      0.64463486	    -42.72997468	    -70.35287963	     96.91746957	     13.17574306	     79.10661301	     22.33998742	     94.68102631	      3.58850179	     83.04869819	     42.70119580	     92.38820520	    -13.09589429	     86.82832855	     27.54176909	     97.84877765	    -14.01781277	     76.99096868	      5.75446346	      0.00094729	     -0.03122899	     -0.00488454	      0.01657065	     -0.01880124	     -0.00759414	      0.00468102	     -0.06675513	     -0.00317783	      0.00766249	     -0.18351924	     -0.00037759	     -0.00465939	      0.00133279	      0.00015446	      0.00020065	      0.00008026	      0.00040131	      0.00025684	      0.00077051	      0.00043341	      0.00001731	     -0.00026881	     -0.00032257	      0.00249205	      0.00874330	      0.00608230	     -0.00815197	      0.01968298	     -0.01866927	      0.00249205	      0.00874330	      0.00608230	      0.00054910	      0.01824689	     -0.00958806	      0.00394270	      0.00486204	      0.01595482	      0.00000000	      0.00773023	      0.00000000	     -0.00713825	     -0.03298801	     -0.00637365	      0.01556281	     -0.00053270	     -0.00449421	     -0.00088700	      0.01486783	     -0.00608230	      0.00244981	      0.02145699	     -0.01774003	     -0.00595558	      0.01288264	     -0.00544872	     -0.01241802	      0.02720138	     -0.03045372	     -0.02331547	      0.01440321	     -0.00730720	     -0.01545917	      0.03142519	     -0.03805659
      1.36666667	     -0.32440193	      0.13740135	     -0.13740135	      0.32440193	     -0.06568479	      0.53084139	      0.23860955	     -0.23860955	     -0.53084139	      0.06568479	     96.73899954	     76.80504124	     -1.68841406	    -19.71887627	     31.42779780	     35.32693594	      0.17724426	     -0.98440843	      0.21483228	     -0.49220421	     17.30808931	      1.04208865	    -42.69090095	    -70.28869305	     97.06785689	     13.15499076	     79.46088978	     22.04532176	     94.88429395	      3.35289401	     83.29507483	     41.57479493	     92.41882668	    -13.06351635	     88.00291779	     26.78648624	     98.21034735	    -14.00764338	     78.09270940	      5.75272136	      0.00093953	     -0.03120211	     -0.00488020	      0.01654070	     -0.01873752	     -0.00795358	      0.00493974	     -0.06658784	     -0.00289577	      0.00731313	     -0.18358917	     -0.00034503	     -0.00423922	      0.00119352	      0.00017405	      0.00019565	      0.00007826	      0.00039130	      0.00025043	      0.00075129	      0.00042260	      0.00001842	     -0.00026628	     -0.00031953	      0.00251750	      0.00883259	      0.00614441	     -0.00823521	      0.01988399	     -0.01885992	      0.00251750	      0.00883259	      0.00614441	      0.00055470	      0.01843323	     -0.00968598	      0.00397202	      0.00491169	      0.01602620	      0.00000000	      0.00789006	      0.00000000	     -0.00721115	     -0.03332488	     -0.00650633	      0.01361351	     -0.00042332	     -0.00320122	     -0.00089606	      0.01501967	     -0.00614441	      0.00247483	      0.02167611	     -0.01792119	     -0.00601640	      0.01301420	     -0.00550437	     -0.01254483	      0.02747916	     -0.03076471	     -0.02355357	      0.01455030	     -0.00738182	     -0.01561704	      0.03174611	     -0.03844522
